<svg xmlns="http://www.w3.org/2000/svg" width="346" height="350" viewBox="0 0 346 350" fill="none">
  <path d="M345.314 279.655C345.257 318.419 316.111 349.826 276.639 349.889C207.528 350.001 138.425 350.028 69.3307 349.97C31.1661 349.939 0.0361104 320.163 0.0235933 281.686C-0.00561323 211.475 -0.00770552 141.264 0.0173286 71.0528C0.021501 65.4026 0.180057 61.242 0.492984 58.5711C2.02007 45.6039 6.88713 34.1618 15.0942 24.2447C29.226 7.16903 48.1455 -0.00624617 70.1067 4.07958e-06C138.479 0.0208382 206.854 0.0416667 275.23 0.0625008C277.579 0.0625008 279.929 0.104167 282.278 0.187504C299.213 0.787528 314.49 7.43155 326.094 19.5758C339.161 33.243 345.576 49.8853 345.339 69.5028C345.305 72.3737 345.289 73.8279 345.289 73.8654C345.36 170.973 345.368 239.57 345.314 279.655ZM223.76 84.1158C223.931 84.4158 224.113 84.6429 224.305 84.7971C224.358 84.841 224.421 84.8723 224.489 84.8887C224.556 84.9051 224.626 84.9061 224.694 84.8917C224.762 84.8773 224.826 84.8479 224.881 84.8055C224.936 84.7632 224.981 84.709 225.012 84.6471C227.357 79.9219 230.803 76.228 235.351 73.5654C235.453 73.5065 235.538 73.4223 235.598 73.3208C235.658 73.2193 235.69 73.1041 235.692 72.9863C235.694 72.8686 235.665 72.7524 235.609 72.649C235.552 72.5457 235.47 72.4587 235.37 72.3966C230.96 69.634 227.478 65.988 224.924 61.4587C224.886 61.39 224.83 61.3325 224.763 61.2916C224.696 61.2508 224.619 61.228 224.54 61.2255C224.461 61.2229 224.383 61.2408 224.314 61.2773C224.244 61.3138 224.185 61.3676 224.142 61.4337C222.133 64.4713 220.03 67.1027 217.095 69.4778C216.002 70.3611 214.971 71.2591 214.003 72.1716C213.922 72.248 213.859 72.3412 213.818 72.4447C213.777 72.5482 213.76 72.6595 213.767 72.7705C213.774 72.8816 213.806 72.9896 213.86 73.0871C213.913 73.1845 213.988 73.2689 214.078 73.3342C218.063 76.2093 221.29 79.8032 223.76 84.1158ZM86.1161 74.0842C86.1161 71.0639 84.9147 68.1674 82.7762 66.0317C80.6377 63.896 77.7373 62.6962 74.713 62.6962C73.2155 62.6962 71.7328 62.9908 70.3493 63.5631C68.9658 64.1354 67.7087 64.9742 66.6498 66.0317C65.591 67.0892 64.751 68.3446 64.178 69.7262C63.6049 71.1079 63.31 72.5887 63.31 74.0842C63.31 77.1045 64.5113 80.001 66.6498 82.1367C68.7883 84.2723 71.6887 85.4721 74.713 85.4721C77.7373 85.4721 80.6377 84.2723 82.7762 82.1367C84.9147 80.001 86.1161 77.1045 86.1161 74.0842ZM128.067 69.5158C128.287 69.5991 128.523 69.6331 128.762 69.6159C129.001 69.5987 129.238 69.5305 129.459 69.4153C129.681 69.3001 129.883 69.14 130.053 68.9444C130.224 68.7487 130.36 68.5213 130.454 68.275C130.643 67.7775 130.648 67.2336 130.468 66.7628C130.288 66.292 129.938 65.933 129.494 65.7646C129.274 65.6813 129.038 65.6472 128.799 65.6645C128.56 65.6817 128.323 65.7499 128.102 65.8651C127.88 65.9803 127.678 66.1403 127.508 66.336C127.337 66.5316 127.201 66.7591 127.107 67.0054C126.918 67.5028 126.913 68.0468 127.093 68.5176C127.273 68.9883 127.623 69.3474 128.067 69.5158ZM259.778 85.4596C250.785 86.2909 254.709 97.4539 261.443 94.6037C264.389 93.3579 265.715 90.9223 265.423 87.2972C265.248 85.1388 265.292 81.5574 265.555 76.553C265.567 76.3447 265.678 76.2384 265.886 76.2343C269.671 76.2093 272.168 76.2218 273.378 76.2718C275.794 76.3718 277.171 75.4842 277.509 73.6092C277.828 71.8591 277.014 70.359 275.08 70.2965C270.637 70.1507 266.335 70.132 262.175 70.2403C261.621 70.2533 261.093 70.4828 260.705 70.8797C260.317 71.2767 260.099 71.8098 260.097 72.3654L260.072 85.1409C260.073 85.2213 260.042 85.2988 259.988 85.3579C259.933 85.417 259.858 85.4533 259.778 85.4596ZM136.291 177.482C136.292 177.515 136.284 177.548 136.267 177.577C136.251 177.606 136.227 177.629 136.198 177.646C136.168 177.662 136.136 177.67 136.102 177.668C136.069 177.667 136.037 177.657 136.009 177.638C130.114 173.951 123.236 172.701 116.426 174.194C104.773 176.751 95.5415 188.476 97.7132 200.689C99.9412 213.252 109.761 221.428 122.284 221.665C135.133 221.909 146.599 212.165 149.021 199.502C149.634 196.283 149.559 192.139 149.559 188.557C149.567 167.732 149.582 146.906 149.603 126.08C149.603 124.342 150.222 122.636 151.887 122.124C152.584 121.907 153.642 122.005 155.06 122.417C176.323 128.626 197.602 134.793 218.897 140.918C222.897 142.068 224.812 142.924 224.83 147.306C224.868 158.456 224.87 169.592 224.837 180.713C224.837 180.959 224.73 181.024 224.517 180.907C217.562 177.124 210.638 176.349 203.745 178.582C190.283 182.938 183.124 197.37 188.762 210.621C195.603 226.696 216.031 231.003 229.093 219.684C235.263 214.333 238.38 207.292 238.443 198.558C238.647 171.444 238.658 144.327 238.474 117.205C238.445 113.367 238.134 110.763 237.542 109.392C236.386 106.733 234.187 104.933 230.945 103.992C202.878 95.8413 174.768 87.8264 146.617 79.9469C140.809 78.3219 136.216 82.6345 136.228 88.3973C136.312 118.119 136.333 147.814 136.291 177.482ZM111.451 93.8287C109.642 92.9037 106.125 91.8911 105.248 90.2973C104.23 88.4514 103.475 86.5951 102.983 84.7284C102.945 84.5816 102.862 84.4508 102.745 84.3547C102.628 84.2585 102.483 84.202 102.331 84.193C102.179 84.184 102.028 84.223 101.899 84.3045C101.77 84.3861 101.67 84.506 101.612 84.6471C100.78 86.7597 100.21 89.3098 98.5331 90.8098C96.8495 92.3099 95.3036 92.4037 93.4824 93.4287C93.1069 93.6412 92.8607 93.8183 92.7439 93.96C92.1598 94.6767 92.3225 95.1163 93.2321 95.2788C98.7709 96.2913 100.01 99.5227 101.587 104.354C101.631 104.486 101.715 104.601 101.827 104.683C101.94 104.764 102.075 104.808 102.214 104.809C102.353 104.81 102.489 104.767 102.602 104.686C102.715 104.606 102.8 104.492 102.845 104.36C103.137 103.49 103.442 102.496 103.759 101.379C104.917 97.3038 107.871 96.3976 111.388 95.0538C111.51 95.008 111.616 94.9275 111.693 94.8224C111.77 94.7172 111.815 94.5919 111.822 94.4617C111.828 94.3316 111.797 94.2024 111.731 94.0899C111.665 93.9775 111.568 93.8867 111.451 93.8287ZM279.963 94.7111C280.524 94.5278 281.043 94.2319 281.489 93.8404C281.936 93.4489 282.301 92.9694 282.564 92.4293C282.826 91.8892 282.982 91.2991 283.021 90.6927C283.061 90.0862 282.983 89.4754 282.793 88.8949C282.41 87.7226 281.591 86.7455 280.518 86.1784C279.444 85.6113 278.204 85.5007 277.07 85.871C276.508 86.0544 275.989 86.3502 275.543 86.7418C275.097 87.1333 274.732 87.6128 274.469 88.1529C274.206 88.693 274.05 89.2831 274.011 89.8895C273.972 90.4959 274.049 91.1068 274.239 91.6873C274.623 92.8595 275.441 93.8367 276.515 94.4038C277.588 94.9708 278.828 95.0814 279.963 94.7111ZM81.491 140.131C68.1478 132.668 54.2038 148.187 63.8795 160.413C72.291 171.051 89.1578 165.132 89.5145 151.537C89.6063 147.883 89.6563 139.399 89.6647 126.086C89.6647 124.207 89.5395 122.949 89.2892 122.311C88.3441 119.924 84.4388 119.136 82.7115 121.286C82.1941 121.928 81.9396 122.88 81.9479 124.142C81.9813 129.405 81.95 134.666 81.854 139.924C81.8499 140.191 81.7289 140.26 81.491 140.131ZM274.023 148.887C276.342 144.187 279.728 140.46 284.18 137.705C284.307 137.627 284.412 137.518 284.484 137.388C284.556 137.257 284.593 137.11 284.591 136.961C284.59 136.812 284.551 136.665 284.476 136.535C284.402 136.405 284.296 136.296 284.168 136.218C279.987 133.705 276.703 130.318 274.317 126.055C274.266 125.966 274.193 125.891 274.105 125.837C274.017 125.784 273.917 125.754 273.814 125.75C273.712 125.746 273.61 125.769 273.52 125.816C273.429 125.863 273.352 125.932 273.297 126.017C270.568 130.151 267.153 133.614 263.051 136.405C262.951 136.473 262.869 136.565 262.812 136.671C262.755 136.778 262.724 136.897 262.723 137.018C262.722 137.139 262.75 137.258 262.805 137.366C262.86 137.474 262.94 137.567 263.039 137.637C267.295 140.678 270.758 144.437 273.428 148.912C273.459 148.965 273.504 149.008 273.558 149.037C273.611 149.066 273.672 149.08 273.733 149.077C273.794 149.074 273.853 149.055 273.904 149.022C273.955 148.989 273.996 148.942 274.023 148.887ZM117.09 146.887C117.09 145.755 116.639 144.669 115.838 143.868C115.036 143.068 113.949 142.618 112.815 142.618C111.681 142.618 110.594 143.068 109.792 143.868C108.991 144.669 108.54 145.755 108.54 146.887C108.54 148.019 108.991 149.105 109.792 149.906C110.594 150.706 111.681 151.156 112.815 151.156C113.949 151.156 115.036 150.706 115.838 149.906C116.639 149.105 117.09 148.019 117.09 146.887ZM195.629 161.396C195.954 160.925 196.179 160.392 196.292 159.828C196.405 159.264 196.403 158.68 196.287 158.11C196.171 157.54 195.943 156.994 195.616 156.504C195.289 156.014 194.87 155.589 194.381 155.254C193.893 154.918 193.345 154.679 192.77 154.55C192.195 154.421 191.603 154.404 191.028 154.5C190.453 154.597 189.907 154.804 189.42 155.112C188.934 155.419 188.516 155.82 188.192 156.291C187.867 156.763 187.642 157.296 187.529 157.86C187.416 158.423 187.418 159.007 187.534 159.578C187.65 160.148 187.878 160.694 188.205 161.184C188.532 161.674 188.951 162.099 189.44 162.434C189.928 162.769 190.476 163.008 191.051 163.138C191.626 163.267 192.218 163.284 192.793 163.187C193.368 163.091 193.914 162.883 194.401 162.576C194.887 162.269 195.305 161.868 195.629 161.396ZM262.31 159.187C262.537 159.193 262.764 159.146 262.977 159.05C263.19 158.953 263.385 158.809 263.551 158.624C263.717 158.44 263.85 158.219 263.944 157.975C264.037 157.731 264.089 157.468 264.096 157.202C264.103 156.935 264.065 156.67 263.984 156.421C263.904 156.172 263.782 155.945 263.626 155.752C263.47 155.56 263.283 155.405 263.075 155.297C262.868 155.19 262.644 155.132 262.416 155.126C262.189 155.12 261.962 155.166 261.749 155.263C261.536 155.359 261.341 155.504 261.175 155.688C261.009 155.873 260.876 156.093 260.782 156.337C260.689 156.581 260.637 156.844 260.63 157.111C260.623 157.378 260.661 157.643 260.741 157.891C260.822 158.14 260.944 158.367 261.1 158.56C261.256 158.753 261.443 158.907 261.65 159.015C261.858 159.123 262.082 159.181 262.31 159.187ZM283.742 189.451C283.742 186.935 282.741 184.522 280.959 182.742C279.178 180.963 276.761 179.963 274.242 179.963C271.722 179.963 269.305 180.963 267.524 182.742C265.742 184.522 264.741 186.935 264.741 189.451C264.741 191.968 265.742 194.381 267.524 196.16C269.305 197.94 271.722 198.939 274.242 198.939C276.761 198.939 279.178 197.94 280.959 196.16C282.741 194.381 283.742 191.968 283.742 189.451ZM67.6221 204.677C69.5685 202.07 70.9078 199.539 73.2297 197.17C74.6504 195.72 76.7658 194.345 78.4556 192.883C78.5051 192.841 78.5439 192.788 78.5686 192.729C78.5933 192.669 78.6033 192.604 78.5978 192.54C78.5923 192.475 78.5715 192.412 78.5369 192.357C78.5024 192.301 78.4552 192.254 78.3993 192.22C73.38 189.257 71.0017 185.939 67.4344 181.295C67.2883 181.099 67.1339 181.093 66.9712 181.276C65.2 183.245 63.5916 185.664 61.8955 187.32C60.2141 188.962 58.3866 190.537 56.413 192.045C56.3265 192.111 56.2568 192.196 56.2097 192.294C56.1625 192.392 56.1391 192.499 56.1416 192.608C56.144 192.716 56.1722 192.823 56.2237 192.918C56.2752 193.014 56.3487 193.096 56.4381 193.158C61.1508 196.383 63.7418 199.914 66.8022 204.646C66.8458 204.713 66.9051 204.769 66.9751 204.809C67.045 204.849 67.1236 204.871 67.204 204.874C67.2845 204.878 67.3645 204.861 67.4373 204.827C67.5101 204.792 67.5735 204.741 67.6221 204.677ZM172.589 204.614C172.825 204.641 173.065 204.615 173.294 204.538C173.524 204.461 173.738 204.334 173.926 204.165C174.114 203.997 174.272 203.789 174.39 203.554C174.507 203.319 174.583 203.062 174.613 202.797C174.673 202.261 174.542 201.727 174.247 201.311C173.952 200.894 173.519 200.63 173.042 200.577C172.806 200.55 172.567 200.576 172.337 200.653C172.108 200.731 171.893 200.857 171.705 201.026C171.517 201.195 171.36 201.402 171.242 201.637C171.124 201.872 171.048 202.129 171.018 202.394C170.958 202.93 171.09 203.464 171.384 203.881C171.679 204.297 172.112 204.561 172.589 204.614ZM274.26 234.584C272.201 233.191 271.181 229.872 270.618 227.647C270.585 227.526 270.515 227.419 270.418 227.341C270.321 227.263 270.201 227.218 270.076 227.212C269.951 227.207 269.828 227.241 269.724 227.31C269.62 227.379 269.541 227.479 269.498 227.597C268.715 229.79 267.326 233.778 265.236 234.684C263.579 235.405 261.923 236.155 260.266 236.934C260.163 236.982 260.075 237.058 260.014 237.155C259.954 237.251 259.923 237.363 259.925 237.477C259.928 237.591 259.964 237.701 260.029 237.795C260.094 237.889 260.185 237.961 260.291 238.003C262.1 238.753 264.259 239.391 265.73 240.503C267.839 242.091 268.578 245.035 269.31 247.422C269.337 247.514 269.387 247.597 269.456 247.664C269.524 247.73 269.609 247.778 269.701 247.802C269.794 247.827 269.891 247.827 269.983 247.803C270.076 247.78 270.161 247.732 270.23 247.666C270.301 247.599 270.411 247.468 270.562 247.272C270.658 247.147 270.72 246.997 270.749 246.822C271.776 241.378 274.348 240.11 279.098 238.103C279.21 238.056 279.307 237.979 279.379 237.881C279.451 237.783 279.496 237.668 279.508 237.548C279.52 237.427 279.5 237.306 279.448 237.197C279.397 237.088 279.317 236.995 279.217 236.928C277.665 235.872 275.562 235.459 274.26 234.584ZM241.307 241.845C241.75 241.762 242.138 241.48 242.384 241.061C242.63 240.641 242.715 240.119 242.619 239.609C242.572 239.357 242.482 239.115 242.354 238.897C242.226 238.68 242.063 238.491 241.875 238.341C241.686 238.192 241.475 238.084 241.254 238.026C241.032 237.967 240.806 237.958 240.586 237.999C240.142 238.082 239.754 238.364 239.508 238.783C239.262 239.203 239.177 239.725 239.273 240.235C239.32 240.487 239.41 240.729 239.538 240.947C239.666 241.164 239.829 241.353 240.018 241.503C240.207 241.652 240.418 241.76 240.639 241.818C240.86 241.877 241.087 241.886 241.307 241.845ZM74.8507 252.473C77.2957 252.364 79.7303 252.343 82.1544 252.41C84.3074 252.472 86.4791 252.16 86.7482 249.779C87.0298 247.229 85.3964 246.366 83.0932 246.297C79.3464 246.176 75.5913 246.156 71.8278 246.235C70.1005 246.272 69.2305 247.156 69.218 248.885L69.1492 262.173C69.145 262.39 69.0344 262.506 68.8175 262.523C65.0436 262.792 61.4136 265.804 63.8169 269.829C64.6597 271.242 65.8843 271.975 67.4907 272.03C70.4072 272.13 72.9293 270.029 73.9432 267.361C74.2895 266.448 74.4544 265.036 74.4377 263.123C74.4001 259.694 74.4189 256.264 74.494 252.835C74.4982 252.602 74.6171 252.481 74.8507 252.473ZM235.883 258.179C235.883 256.816 235.341 255.51 234.376 254.546C233.411 253.583 232.103 253.041 230.738 253.041H113.629C112.264 253.041 110.956 253.583 109.991 254.546C109.026 255.51 108.484 256.816 108.484 258.179V258.279C108.484 259.642 109.026 260.948 109.991 261.912C110.956 262.875 112.264 263.417 113.629 263.417H230.738C232.103 263.417 233.411 262.875 234.376 261.912C235.341 260.948 235.883 259.642 235.883 258.279V258.179ZM92.3872 268.223C92.3872 267.62 92.2682 267.022 92.037 266.465C91.8058 265.908 91.467 265.401 91.0398 264.975C90.6127 264.548 90.1056 264.21 89.5475 263.979C88.9894 263.748 88.3912 263.629 87.7871 263.629C86.5671 263.629 85.3971 264.113 84.5344 264.975C83.6717 265.836 83.1871 267.005 83.1871 268.223C83.1871 269.442 83.6717 270.61 84.5344 271.472C85.3971 272.333 86.5671 272.817 87.7871 272.817C88.3912 272.817 88.9894 272.698 89.5475 272.467C90.1056 272.236 90.6127 271.898 91.0398 271.472C91.467 271.045 91.8058 270.539 92.037 269.981C92.2682 269.424 92.3872 268.826 92.3872 268.223ZM281.633 278.98C281.633 277.483 281.338 276.002 280.764 274.619C280.191 273.237 279.351 271.981 278.291 270.923C277.232 269.865 275.974 269.026 274.59 268.453C273.206 267.88 271.722 267.586 270.224 267.586C267.198 267.586 264.296 268.786 262.156 270.923C260.016 273.06 258.814 275.958 258.814 278.98C258.814 282.002 260.016 284.9 262.156 287.037C264.296 289.174 267.198 290.374 270.224 290.374C271.722 290.374 273.206 290.079 274.59 289.507C275.974 288.934 277.232 288.095 278.291 287.037C279.351 285.979 280.191 284.723 280.764 283.34C281.338 281.958 281.633 280.476 281.633 278.98ZM222.183 280.461C222.183 279.07 221.63 277.737 220.645 276.753C219.66 275.77 218.325 275.217 216.932 275.217H128.574C127.181 275.217 125.846 275.77 124.861 276.753C123.876 277.737 123.323 279.07 123.323 280.461V280.599C123.323 281.989 123.876 283.323 124.861 284.307C125.846 285.29 127.181 285.843 128.574 285.843H216.932C218.325 285.843 219.66 285.29 220.645 284.307C221.63 283.323 222.183 281.989 222.183 280.599V280.461Z" fill="#BC4749"/>
</svg>