<svg xmlns="http://www.w3.org/2000/svg" width="71" height="13" fill="none">
  <path
    fill="#BC4749"
    fill-rule="evenodd"
    d="M11.764.158c.15.127.236.313.236.509V8.37a2.444 2.444 0 1 1-1.333-2.178V1.454l-5.778.963v7.139a2.444 2.444 0 1 1-1.333-2.178V1.852c0-.326.235-.604.557-.658L11.223.01a.667.667 0 0 1 .541.149ZM3.556 9.556a1.111 1.111 0 1 0-2.223 0 1.111 1.111 0 0 0 2.223 0Zm7.11-1.186a1.111 1.111 0 1 0-2.222 0 1.111 1.111 0 0 0 2.223 0Z"
    clip-rule="evenodd"
  />
  <path
    fill="#BC4749"
    d="M19.912 3.955v1.022h-3.575V3.955h3.575Zm-2.616-1.569h1.274v6.192c0 .247.037.433.11.558a.578.578 0 0 0 .286.252c.12.042.248.064.388.064.102 0 .192-.007.268-.022l.18-.034.23 1.053a2.497 2.497 0 0 1-.827.136 2.243 2.243 0 0 1-.938-.179 1.609 1.609 0 0 1-.703-.58c-.18-.26-.268-.589-.268-.984V2.386ZM24.008 10.632c-.613 0-1.149-.14-1.606-.422a2.844 2.844 0 0 1-1.066-1.18c-.252-.506-.379-1.097-.379-1.773 0-.679.127-1.273.38-1.781a2.839 2.839 0 0 1 1.065-1.185c.457-.281.992-.422 1.606-.422.614 0 1.15.14 1.607.422.457.281.812.676 1.065 1.185.253.508.38 1.102.38 1.781 0 .676-.127 1.267-.38 1.773s-.608.899-1.065 1.18c-.458.281-.993.422-1.607.422Zm.004-1.07c.398 0 .728-.105.99-.315.26-.21.454-.49.579-.84.128-.349.191-.734.191-1.154 0-.418-.063-.801-.191-1.15a1.875 1.875 0 0 0-.58-.849c-.261-.213-.59-.32-.989-.32-.4 0-.733.107-.997.32a1.904 1.904 0 0 0-.584.848c-.125.35-.187.733-.187 1.15 0 .421.063.806.188 1.156.127.35.322.629.583.84.264.21.597.315.997.315ZM28.482 12.954v-9h1.244v1.062h.106c.074-.137.18-.294.32-.473.14-.18.332-.336.58-.47.247-.136.573-.204.98-.204.528 0 1 .134 1.414.4.415.268.74.653.976 1.156.239.503.358 1.108.358 1.815 0 .707-.118 1.314-.354 1.82-.235.502-.56.89-.971 1.163-.412.27-.882.405-1.41.405-.398 0-.724-.067-.976-.2a1.849 1.849 0 0 1-.588-.47 3.552 3.552 0 0 1-.329-.476h-.076v3.473h-1.274Zm1.248-5.727c0 .46.067.864.2 1.21.134.347.327.618.58.814.253.194.562.29.929.29.38 0 .699-.1.955-.302.255-.205.448-.482.579-.831.133-.35.2-.743.2-1.18 0-.433-.065-.82-.196-1.164a1.781 1.781 0 0 0-.58-.814c-.255-.199-.575-.298-.958-.298-.37 0-.682.095-.938.285-.252.19-.444.456-.575.797-.13.341-.196.739-.196 1.193ZM35.756 10.5V3.955h1.73v1.154h.077c.136-.383.363-.686.681-.907.319-.222.7-.333 1.142-.333.45 0 .831.113 1.147.337.315.222.525.523.63.903h.069c.133-.375.374-.674.724-.899.352-.227.768-.34 1.248-.34.611 0 1.107.194 1.488.583.383.386.575.935.575 1.645V10.5h-1.811V6.456c0-.364-.097-.636-.29-.818a1.016 1.016 0 0 0-.724-.273c-.33 0-.587.105-.772.315-.184.208-.276.482-.276.823V10.5h-1.76V6.418c0-.321-.093-.577-.278-.767-.181-.19-.421-.286-.72-.286a1 1 0 0 0-.545.153c-.16.1-.286.24-.38.422-.093.18-.14.39-.14.631V10.5h-1.815ZM50.898 7.713V3.955h1.816V10.5H50.97V9.311h-.068a1.933 1.933 0 0 1-.737.925c-.341.233-.758.35-1.25.35-.437 0-.822-.1-1.154-.3a2.05 2.05 0 0 1-.78-.847c-.184-.367-.278-.805-.281-1.317V3.955h1.815v3.843c.003.387.107.692.311.916.205.225.48.337.823.337.219 0 .423-.05.614-.149.19-.102.343-.253.46-.452.119-.199.177-.444.174-.737ZM59.612 5.821l-1.662.102a.86.86 0 0 0-.183-.383.973.973 0 0 0-.371-.277 1.26 1.26 0 0 0-.541-.107c-.281 0-.519.06-.712.18-.193.116-.29.272-.29.468 0 .156.063.288.188.396.125.108.34.195.643.26l1.185.239c.636.13 1.11.34 1.423.63.313.29.469.671.469 1.143 0 .429-.126.805-.38 1.129-.25.324-.593.577-1.03.758-.435.18-.937.269-1.505.269-.866 0-1.557-.18-2.07-.541a2.108 2.108 0 0 1-.9-1.483l1.786-.094a.917.917 0 0 0 .392.605c.207.136.473.205.796.205.319 0 .574-.061.767-.184.197-.125.296-.285.299-.481a.5.5 0 0 0-.209-.405c-.136-.108-.347-.19-.63-.247l-1.134-.226c-.64-.128-1.115-.35-1.428-.665-.31-.315-.464-.717-.464-1.206 0-.42.113-.782.34-1.086.23-.304.553-.539.968-.704.418-.164.906-.247 1.466-.247.827 0 1.477.175 1.952.524.477.35.755.826.835 1.428ZM60.904 10.5V3.955h1.815V10.5h-1.815Zm.912-7.39a.987.987 0 0 1-.695-.268.87.87 0 0 1-.285-.652c0-.25.095-.464.285-.643a.978.978 0 0 1 .695-.273c.27 0 .5.091.69.273.194.179.29.393.29.643 0 .253-.096.47-.29.652a.971.971 0 0 1-.69.269ZM67.131 10.628c-.67 0-1.247-.142-1.73-.426a2.88 2.88 0 0 1-1.108-1.193c-.256-.509-.384-1.094-.384-1.756 0-.67.13-1.259.388-1.764a2.881 2.881 0 0 1 1.112-1.19c.48-.286 1.052-.43 1.713-.43.572 0 1.072.104 1.5.311.43.208.769.499 1.019.874.25.375.388.815.413 1.321h-1.713c-.048-.327-.176-.59-.383-.788-.205-.202-.473-.303-.806-.303-.28 0-.527.077-.737.23-.207.15-.37.37-.486.66-.116.29-.174.641-.174 1.053 0 .418.056.773.17 1.066.117.292.28.515.49.669.21.153.456.23.737.23.208 0 .394-.043.559-.128.167-.085.305-.209.413-.37a1.42 1.42 0 0 0 .217-.593h1.713c-.028.5-.164.94-.409 1.32a2.47 2.47 0 0 1-1.001.887c-.426.213-.93.32-1.513.32Z"
  />
</svg>
